<?xml version="1.0" encoding="UTF-8"?>
<svg xmlns="http://www.w3.org/2000/svg" xmlns:xlink="http://www.w3.org/1999/xlink" width="107.174901pt" height="45.90929pt" viewBox="0 0 107.174901 45.90929" version="1.1">
<g id="surface1">
<rect x="0" y="0" width="107.174901" height="45.90929" style="fill:rgb(100%,100%,100%);fill-opacity:0;stroke:none;"/>
<path style=" stroke:none;fill-rule:nonzero;fill:rgb(34%,34%,34%);fill-opacity:1;" d="M 106.269531 22.386719 L 20.695313 22.386719 L 20.695313 29.996094 L 33.867188 29.996094 C 32.71875 32.371094 31.144531 34.160156 29.144531 35.367188 C 27.179688 36.535156 24.863281 37.121094 22.195313 37.121094 C 20.410156 37.121094 18.707031 36.765625 17.078125 36.054688 C 15.445313 35.386719 13.984375 34.410156 12.6875 33.132813 C 11.425781 31.886719 10.460938 30.457031 9.792969 28.824219 C 9.164063 27.195313 8.851563 25.421875 8.851563 23.507813 C 8.851563 21.734375 9.199219 20.03125 9.90625 18.402344 C 10.613281 16.734375 11.628906 15.246094 12.960938 13.929688 C 14.226563 12.691406 15.636719 11.765625 17.191406 11.167969 C 18.707031 10.5625 20.375 10.261719 22.195313 10.261719 C 24.34375 10.261719 26.269531 10.65625 27.976563 11.429688 C 29.277344 12.03125 30.492188 12.910156 31.621094 14.0625 C 32.832031 15.863281 33.085938 15.902344 34.027344 17.667969 L 43.527344 17.667969 C 43.027344 16.59375 42.480469 15.597656 41.890625 14.664063 C 39.949219 10.714844 37.367188 7.6875 34.148438 5.582031 C 30.847656 3.492188 27.027344 2.445313 22.695313 2.445313 C 19.578125 2.445313 16.726563 2.941406 14.128906 3.929688 C 11.535156 4.925781 9.222656 6.417969 7.183594 8.402344 C 4.992188 10.421875 3.324219 12.722656 2.179688 15.316406 C 1.070313 17.90625 0.515625 20.617188 0.515625 23.453125 C 0.515625 26.179688 0.976563 28.789063 1.902344 31.273438 C 2.863281 33.71875 4.234375 35.917969 6.015625 37.867188 C 8.125 40.136719 10.570313 41.875 13.355469 43.078125 C 16.097656 44.285156 19.039063 44.886719 22.195313 44.886719 C 26.652344 44.886719 30.5625 43.792969 33.925781 41.617188 L 33.925781 44.886719 L 44.039063 44.886719 L 44.039063 29.863281 L 106.269531 29.863281 Z M 106.269531 22.386719 "/>
<path style=" stroke:none;fill-rule:nonzero;fill:rgb(34%,34%,34%);fill-opacity:1;" d="M 50.84375 13.210938 C 51.113281 13.941406 51.523438 14.589844 52.066406 15.148438 C 52.617188 15.71875 53.261719 16.160156 53.976563 16.460938 C 54.679688 16.78125 55.410156 16.941406 56.179688 16.941406 C 57.863281 16.941406 59.261719 16.359375 60.363281 15.195313 C 61.480469 14.03125 62.035156 12.554688 62.035156 10.765625 C 62.035156 10.003906 61.902344 9.296875 61.628906 8.636719 C 61.371094 7.96875 60.976563 7.347656 60.433594 6.777344 C 59.8125 6.089844 59.164063 5.605469 58.492188 5.316406 C 57.824219 5.011719 57.054688 4.863281 56.179688 4.863281 C 55.398438 4.863281 54.679688 5 54.027344 5.265625 C 53.355469 5.542969 52.746094 5.957031 52.203125 6.511719 C 51.628906 7.097656 51.195313 7.773438 50.894531 8.523438 C 50.585938 9.253906 50.4375 10.015625 50.4375 10.820313 C 50.4375 11.664063 50.570313 12.460938 50.84375 13.210938 M 47.152344 6.957031 C 47.675781 5.738281 48.414063 4.652344 49.386719 3.699219 C 50.320313 2.78125 51.355469 2.085938 52.488281 1.621094 C 53.679688 1.136719 54.910156 0.890625 56.195313 0.890625 C 57.519531 0.890625 58.765625 1.136719 59.933594 1.621094 C 61.101563 2.085938 62.152344 2.789063 63.085938 3.722656 C 64.039063 4.660156 64.769531 5.738281 65.269531 6.957031 C 65.785156 8.160156 66.042969 9.4375 66.042969 10.789063 C 66.042969 12.125 65.820313 13.378906 65.367188 14.546875 C 64.949219 15.714844 64.332031 16.753906 63.515625 17.65625 C 62.527344 18.707031 61.40625 19.507813 60.15625 20.054688 C 58.902344 20.609375 57.574219 20.886719 56.175781 20.886719 C 54.75 20.886719 53.429688 20.597656 52.191406 20.035156 C 50.941406 19.46875 49.832031 18.648438 48.886719 17.578125 C 48.078125 16.660156 47.460938 15.625 47.027344 14.46875 C 46.613281 13.304688 46.402344 12.078125 46.402344 10.789063 C 46.402344 9.453125 46.652344 8.175781 47.152344 6.957031 "/>
<path style=" stroke:none;fill-rule:nonzero;fill:rgb(34%,34%,34%);fill-opacity:1;" d="M 70.140625 13.261719 C 70.414063 14.015625 70.828125 14.675781 71.386719 15.25 C 71.957031 15.839844 72.613281 16.289063 73.347656 16.597656 C 74.070313 16.925781 74.820313 17.089844 75.605469 17.089844 C 77.332031 17.089844 78.765625 16.492188 79.890625 15.300781 C 81.03125 14.109375 81.609375 12.59375 81.609375 10.761719 C 81.609375 9.984375 81.46875 9.257813 81.191406 8.585938 C 80.929688 7.898438 80.519531 7.261719 79.960938 6.675781 C 79.324219 5.96875 78.664063 5.46875 77.980469 5.175781 C 77.289063 4.871094 76.496094 4.714844 75.605469 4.714844 C 74.804688 4.714844 74.070313 4.847656 73.398438 5.132813 C 72.707031 5.410156 72.085938 5.832031 71.53125 6.40625 C 70.945313 7.007813 70.496094 7.695313 70.1875 8.464844 C 69.875 9.214844 69.722656 10 69.722656 10.816406 C 69.722656 11.679688 69.863281 12.5 70.140625 13.261719 M 66.578125 6.957031 C 67.101563 5.738281 67.84375 4.652344 68.8125 3.699219 C 69.746094 2.78125 70.78125 2.085938 71.917969 1.621094 C 73.105469 1.136719 74.335938 0.890625 75.625 0.890625 C 76.945313 0.890625 78.191406 1.136719 79.359375 1.621094 C 80.527344 2.085938 81.578125 2.789063 82.515625 3.722656 C 83.46875 4.660156 84.195313 5.738281 84.695313 6.957031 C 85.210938 8.160156 85.472656 9.4375 85.472656 10.789063 C 85.472656 12.125 85.242188 13.378906 84.792969 14.546875 C 84.375 15.71875 83.761719 16.753906 82.945313 17.652344 C 81.953125 18.707031 80.835938 19.507813 79.582031 20.054688 C 78.328125 20.609375 77 20.886719 75.601563 20.886719 C 74.183594 20.886719 72.855469 20.597656 71.617188 20.035156 C 70.363281 19.46875 69.265625 18.648438 68.3125 17.578125 C 67.511719 16.660156 66.894531 15.625 66.453125 14.46875 C 66.039063 13.304688 65.828125 12.078125 65.828125 10.789063 C 65.828125 9.453125 66.078125 8.175781 66.578125 6.957031 "/>
<path style=" stroke:none;fill-rule:nonzero;fill:rgb(34%,34%,34%);fill-opacity:1;" d="M 93.523438 17.304688 C 95.695313 17.304688 97.394531 16.742188 98.605469 15.617188 C 99.792969 14.507813 100.394531 12.96875 100.394531 10.996094 C 100.394531 8.917969 99.753906 7.335938 98.488281 6.242188 C 97.222656 5.121094 95.371094 4.554688 92.949219 4.554688 L 90.449219 4.554688 L 90.449219 17.304688 Z M 86.394531 20.886719 L 86.394531 0.921875 L 93.636719 0.921875 C 96.867188 0.921875 99.511719 1.863281 101.558594 3.753906 C 103.582031 5.621094 104.597656 8.015625 104.597656 10.941406 C 104.597656 12.636719 104.207031 14.195313 103.433594 15.617188 C 102.675781 17.015625 101.597656 18.1875 100.195313 19.121094 C 99.097656 19.8125 97.910156 20.289063 96.644531 20.546875 C 95.621094 20.773438 94.332031 20.886719 92.78125 20.886719 Z M 86.394531 20.886719 "/>
</g>
</svg>
